<svg width="24" height="24" viewBox="0 0 24 24" fill="none" xmlns="http://www.w3.org/2000/svg">
<mask id="mask0_50_288" style="mask-type:alpha" maskUnits="userSpaceOnUse" x="0" y="0" width="24" height="24">
<rect width="24" height="24" fill="#D9D9D9"/>
</mask>
<g mask="url(#mask0_50_288)">
<path d="M12 22C9.31667 19.7167 7.3125 17.5959 5.9875 15.6375C4.6625 13.6792 4 11.8667 4 10.2C4 7.70002 4.80417 5.70836 6.4125 4.22502C8.02083 2.74169 9.88333 2.00002 12 2.00002C12.45 2.00002 12.8958 2.03752 13.3375 2.11252C13.7792 2.18752 14.2083 2.29169 14.625 2.42502L13 4.07502C12.8333 4.04169 12.6708 4.02086 12.5125 4.01252C12.3542 4.00419 12.1833 4.00002 12 4.00002C10.3167 4.00002 8.89583 4.57919 7.7375 5.73752C6.57917 6.89586 6 8.38336 6 10.2C6 11.3834 6.49167 12.7375 7.475 14.2625C8.45833 15.7875 9.96667 17.4834 12 19.35C14.0333 17.4834 15.5417 15.7875 16.525 14.2625C17.5083 12.7375 18 11.3834 18 10.2C18 10 17.9917 9.80002 17.975 9.60002C17.9583 9.40002 17.9333 9.20836 17.9 9.02502L19.55 7.37502C19.7 7.80836 19.8125 8.25836 19.8875 8.72502C19.9625 9.19169 20 9.68336 20 10.2C20 11.8667 19.3375 13.6792 18.0125 15.6375C16.6875 17.5959 14.6833 19.7167 12 22ZM17.2 2.70002L11 8.90002V11H13.1L19.3 4.80002L17.2 2.70002ZM20 4.10002L20.7 3.40002C20.8833 3.21669 20.975 2.98336 20.975 2.70002C20.975 2.41669 20.8833 2.18336 20.7 2.00002L20 1.30002C19.8167 1.11669 19.5833 1.02502 19.3 1.02502C19.0167 1.02502 18.7833 1.11669 18.6 1.30002L17.9 2.00002L20 4.10002Z" fill="#CAFF00"/>
</g>
</svg>
